<?xml version="1.0" encoding="UTF-8" standalone="no" ?>
<!DOCTYPE svg PUBLIC "-//W3C//DTD SVG 1.1//EN" "http://www.w3.org/Graphics/SVG/1.1/DTD/svg11.dtd">
<svg xmlns="http://www.w3.org/2000/svg" xmlns:xlink="http://www.w3.org/1999/xlink" version="1.1" width="37" height="37" viewBox="0 0 640 640" xml:space="preserve">
<desc>Created with Fabric.js 4.6.0</desc>
<defs>
</defs>
<g transform="matrix(2.73 0 0 2.73 319.82 319.82)" id="5mAg2uqliK-jK4DJAQQpA"  >
<g style="" vector-effect="non-scaling-stroke"   >
		<g transform="matrix(1 0 0 1 0 0)" id="fP0ZmFDgKPkXJXaX0rRrp"  >
<path style="stroke: rgb(191,238,133); stroke-width: 0; stroke-dasharray: none; stroke-linecap: butt; stroke-dashoffset: 0; stroke-linejoin: miter; stroke-miterlimit: 4; fill: rgb(20,20,20); fill-rule: nonzero; opacity: 1;" vector-effect="non-scaling-stroke"  transform=" translate(-117.06, -117.06)" d="M 117.06422 0 C 181.68367 0 234.12844 52.44477 234.12844 117.06422 C 234.12844 181.68367 181.68367 234.12844 117.06422 234.12844 C 52.444770000000005 234.12844 0 181.68367 0 117.06422 C 0 52.444770000000005 52.44477 0 117.06422 0 z" stroke-linecap="round" />
</g>
		<g transform="matrix(0.31 0 0 0.31 19.08 0)" id="ofLwUk1s74A61ARkJKE_k"  >
<path style="stroke: none; stroke-width: 1; stroke-dasharray: none; stroke-linecap: butt; stroke-dashoffset: 0; stroke-linejoin: miter; stroke-miterlimit: 4; fill: rgb(255,255,255); fill-rule: nonzero; opacity: 1;" vector-effect="non-scaling-stroke"  transform=" translate(-300, -300)" d="M 336.29 300 L 36.291 600 L 263.71000000000004 600 L 563.7090000000001 300 L 263.70900000000006 0 L 36.291000000000054 0 z" stroke-linecap="round" />
</g>
</g>
</g>
</svg>